<?xml version="1.0" encoding="utf-8"?>
<!-- Generator: Adobe Illustrator 21.0.0, SVG Export Plug-In . SVG Version: 6.00 Build 0)  -->
<svg version="1.1" id="Layer_1" xmlns="http://www.w3.org/2000/svg" xmlns:xlink="http://www.w3.org/1999/xlink" x="0px" y="0px"
	 viewBox="0 0 129 129" style="enable-background:new 0 0 129 129;" xml:space="preserve">
<style type="text/css">
	.st0{fill:#FFFFFF;}
</style>
<g id="Layer_36">
	<path d="M64.5,0.7C29.3,0.7,0.7,29.3,0.7,64.5s28.6,63.8,63.8,63.8s63.8-28.6,63.8-63.8S99.7,0.7,64.5,0.7z M64.5,126.3
		c-34.1,0-61.8-27.7-61.8-61.8S30.4,2.7,64.5,2.7s61.8,27.7,61.8,61.8S98.6,126.3,64.5,126.3L64.5,126.3z"/>
	<path d="M66.9,10.6c1.8,0.4,3.7,0.5,5.5,0.9c5.9,1.2,11.5,3.7,16.3,7.4c2.9,2.4,5.5,5.1,7.7,8.1c3.3,4.3,5.2,9.5,5.7,14.9
		c0.2,3.3-0.3,6.5-1.5,9.6c-1.2,3-2.6,5.9-4.3,8.6c-3.1,5.7-7.2,10.7-11.1,15.9c-3.3,4.6-6.5,9.3-9.4,14.2c-1.9,3.4-3.5,7-4.9,10.7
		c-1.2,3.2-2.2,6.4-3,9.7c-0.5,1.7-0.7,3.5-1,5.3c-0.3,1.6-1.2,2.7-2.5,2.7c-1.4,0-2.6-1-2.8-2.4c-0.6-4.2-1.6-8.4-3-12.5
		c-1.6-5-3.8-9.9-6.5-14.5c-3.8-6.2-7.9-12.2-12.4-18c-4.4-5.5-8.1-11.6-11.1-18.1c-2-4.2-2.6-8.9-1.9-13.4
		c0.7-4.1,2.2-7.9,4.4-11.4c1.9-2.8,4.1-5.3,6.5-7.6c5.5-5.3,12.2-8,19.5-9.5c1-0.2,1.9-0.3,2.9-0.5c0.8-0.2,1.6-0.2,2.3-0.4h0.5
		c0.4,0.2,0.9,0,1.3,0.1h0.9C66,10.6,66.5,10.4,66.9,10.6z"/>
	<path class="st0" d="M66.7,14.4c1.6,0.3,3.2,0.4,4.9,0.8c5.2,1,10.2,3.2,14.5,6.4c2.6,2.1,4.9,4.4,6.8,7.1c2.9,3.8,4.6,8.3,5,13
		c0.2,2.9-0.3,5.7-1.3,8.4c-1,2.6-2.3,5.2-3.8,7.6c-2.7,5-6.4,9.3-9.8,13.8c-3,4-5.7,8.1-8.3,12.4c-1.7,3-3.1,6.1-4.3,9.4
		c-1.1,2.8-2,5.6-2.7,8.4c-0.4,1.5-1.9,6.3-2.2,7.8c-0.2,1.4-1.5,1.4-1.7,0.1c-0.5-3.7-3.1-10.4-4.3-13.9c-1.5-4.4-3.4-8.7-5.7-12.7
		c-3.3-5.4-7-10.7-10.9-15.7c-3.9-4.8-7.2-10.1-9.8-15.8c-1.7-3.6-2.3-7.7-1.6-11.7c0.6-3.6,2-6.9,4-9.9c1.7-2.4,3.6-4.6,5.8-6.6
		c4.9-4.6,10.8-7,17.3-8.3c0.9-0.2,1.7-0.3,2.6-0.4c0.7-0.2,1.4-0.2,2.1-0.3h0.5c0.4,0.1,0.8,0.1,1.1,0.1h0.8
		C65.8,14.4,66.3,14.3,66.7,14.4z"/>
	<path d="M85.3,28.9c-1.5,1.4-3,2.9-4.4,4.3c-2.6,2.6-5.1,5.2-7.8,7.8c-0.5,0.5-0.3,0.7,0,1.1c3.8,4.5,7.6,9,11.4,13.4
		c0.5,0.6,1,1.3,1.8,2.1c-2.1,0-3.9-0.1-5.7,0c-0.8,0.1-1.6-0.3-2-1C75,51.8,71.5,47,67.9,42.3c-0.4-0.5-0.3-0.7,0.1-1.2
		c3.9-3.9,7.7-7.7,11.6-11.6c0.5-0.5,1.1-0.8,1.8-0.8c1.2,0,2.4,0,3.7,0L85.3,28.9z"/>
	<path d="M64.6,43.3c0,2.7-0.6,5.4-1.8,7.8c-1.8,3.8-5.5,6.3-9.7,6.5c-6.3,0.6-10.9-2.6-13.3-8.4c-2.6-6.3,0.3-14.1,3.6-17.1
		c5.9-5.4,17.6-4.2,20.5,6.3C64.4,39.9,64.7,41.6,64.6,43.3z M60.6,39.4c-0.4-3.5-4.1-8-8.2-8.3c-4.1-0.3-6.9,1-8.6,4.8
		c-1.7,3.5-2.1,7.4-1.3,11.1c0.4,2.4,1.5,4.7,3.3,6.5c3,2.9,7.6,3.1,10.9,0.6c1.7-1.4,3-3.3,3.6-5.4c0.4-1.9,0.6-3.8,0.6-5.7
		C60.8,41.8,60.8,40.6,60.6,39.4L60.6,39.4z"/>
</g>
</svg>
