<svg xmlns="http://www.w3.org/2000/svg" viewBox="0 0 138.876 61.714"><defs><style>.a{fill:#06b1b5}.b,.c{fill:#fb4b63}.b{fill-rule:evenodd}</style></defs><path class="a" d="M138.252 55.083l-.019.254a1.14 1.14 0 0 1-.039.254 1.888 1.888 0 0 1-.156.468l-.1.215c-.039.058-.078.137-.117.2a1.182 1.182 0 0 1-.136.2l-.137.176a5.8 5.8 0 0 1-1.248 1.073 13.1 13.1 0 0 1-2.75 1.307 37.037 37.037 0 0 1-5.734 1.5c-1.931.351-3.882.6-5.832.761s-3.9.215-5.871.234a71.4 71.4 0 0 1-11.7-.956 35.631 35.631 0 0 1-5.754-1.482 14.982 14.982 0 0 1-2.77-1.326 5.884 5.884 0 0 1-1.268-1.073l-.136-.176a1.184 1.184 0 0 0-.137-.2c-.039-.059-.078-.137-.117-.2l-.1-.215a1.889 1.889 0 0 1-.156-.468 1.141 1.141 0 0 1-.039-.254c0-.078-.02-.176-.02-.254s.02-.176.02-.254a1.14 1.14 0 0 1 .039-.254 3.306 3.306 0 0 1 .156-.468l.1-.215c.039-.059.078-.137.117-.2a1.185 1.185 0 0 1 .137-.2l.136-.176a6.383 6.383 0 0 1 1.268-1.053 14.674 14.674 0 0 1 2.77-1.268 37.41 37.41 0 0 1 5.754-1.385 70.833 70.833 0 0 1 11.664-.858c1.951 0 3.9.059 5.852.215a58.293 58.293 0 0 1 5.812.683 34.584 34.584 0 0 1 5.735 1.385 14.674 14.674 0 0 1 2.77 1.268 5.675 5.675 0 0 1 1.268 1.034l.136.156c.039.059.078.117.137.2a1.716 1.716 0 0 1 .117.2l.1.215a1.891 1.891 0 0 1 .156.468.99.99 0 0 1 .039.254zm-1.307 0a1.4 1.4 0 0 0-.39-.878 5.008 5.008 0 0 0-.956-.819 14.72 14.72 0 0 0-2.5-1.19 33.181 33.181 0 0 0-5.52-1.4 55.748 55.748 0 0 0-5.715-.7 70.922 70.922 0 0 0-5.754-.215 68.433 68.433 0 0 0-11.469.956 33.229 33.229 0 0 0-5.52 1.424 12.634 12.634 0 0 0-2.477 1.19 4.332 4.332 0 0 0-.956.8 1.472 1.472 0 0 0-.39.858 1.36 1.36 0 0 0 .39.839 4.271 4.271 0 0 0 .956.78 12.65 12.65 0 0 0 2.5 1.131 34.506 34.506 0 0 0 5.52 1.326 67.875 67.875 0 0 0 11.43.839c1.911 0 3.823-.059 5.734-.2s3.8-.332 5.7-.624a32.947 32.947 0 0 0 5.52-1.307 13.189 13.189 0 0 0 2.5-1.131 5.039 5.039 0 0 0 .975-.78 1.578 1.578 0 0 0 .422-.899z"/><path class="b" d="M32.789 26.001H43.93v22.782h12.7a2.937 2.937 0 0 0 3.043-4c-1.307-4.525-6.827-6.3-12.132-6.3V26.02l23.27-9.889v12l-10.481 4.15c4.74 2.653 8.368 5.852 9.5 9.6 1.463 5.052.624 11.274-3.667 15.312-3.335 3.14-6.32 2.828-9.538 3.043l-23.835.02v.02h-.06l.059-34.271z"/><path class="b" d="M18.081 26v20.09a2.709 2.709 0 0 1-2.438 2.692L9.85 26H0l5.852 22.626h-.039l.039.156H1.619l2.224 11.489h4.31v.019h7.7a13.382 13.382 0 0 0 13.283-13.38V26z"/><path class="b" d="M84.633 60.154H73.476V30.115l11.157-4.7z"/><path class="a" d="M83.912 13.986a5.441 5.441 0 0 0-3.8-1.6h-.078a5.466 5.466 0 0 0-3.823 1.541 5.368 5.368 0 0 0-1.619 3.784 5.806 5.806 0 0 0 1.424 4c-.507.215-.741.312-1.326.546a1.958 1.958 0 0 0-1.092 2.536 1.934 1.934 0 0 0 1.794 1.229 1.991 1.991 0 0 0 .741-.137c2.692-1.131 5.754-2.341 6.963-3.277.078-.059.332-.254.488-.39a5.355 5.355 0 0 0 1.892-4.564 4.971 4.971 0 0 0-1.564-3.668zM80.07 19.76a1.912 1.912 0 1 1 1.931-1.892 1.915 1.915 0 0 1-1.932 1.891z"/><path class="c" d="M138.877 22.782a22.782 22.782 0 0 0-45.564 0 22.31 22.31 0 0 0 1.073 6.885 24.952 24.952 0 0 0 1.853 4.8 34.263 34.263 0 0 0 3.355 5.227c1.209 1.58 2.477 3 3.706 4.35s2.438 2.594 3.55 3.784c1.131 1.209 2.2 2.38 3.2 3.472a64.313 64.313 0 0 1 2.672 3.16c.2.254.39.507.566.741l.137.176c.039.059.1.137.136.2s.1.137.137.2l.039.039.02.02.1.117a2.712 2.712 0 0 0 .41.41 2.862 2.862 0 0 0 2.2.624 2.7 2.7 0 0 0 1.092-.371 1.784 1.784 0 0 0 .254-.156l.117-.1a.624.624 0 0 0 .137-.117.9.9 0 0 0 .136-.137c.039-.039.1-.117.117-.137l.039-.039a3.323 3.323 0 0 1 .214-.273l.117-.176c.078-.117.176-.215.254-.332a44.154 44.154 0 0 1 1.951-2.341 180.428 180.428 0 0 1 4.018-4.435s.37-.41 1.073-1.151c.7-.761 1.755-1.872 3.082-3.335a54.176 54.176 0 0 0 4.545-5.657 32.333 32.333 0 0 0 2.341-3.94 26.9 26.9 0 0 0 1.5-3.647 22.307 22.307 0 0 0 1.423-7.861zM116.095 3.413a19.359 19.359 0 1 1-19.369 19.349 19.392 19.392 0 0 1 19.369-19.349z"/><path class="c" d="M108.781 32.028a9.324 9.324 0 1 0-9.187-9.323 9.257 9.257 0 0 0 9.187 9.323zm0-16.579c2.809 0 5.071 3.257 5.071 7.256s-2.282 7.256-5.071 7.256c-2.809 0-5.071-3.257-5.071-7.256s2.284-7.256 5.071-7.256z"/><path class="c" d="M126.491 31.794h5.793l-8.563-9.284 7.744-8.5-4.974-.039-6.612 7.353a2.06 2.06 0 0 0 0 2.906z"/></svg>