<svg xmlns="http://www.w3.org/2000/svg" viewBox="0 0 24 24"  xmlns:v="https://vecta.io/nano"><path d="M21.692 23a1.314 1.314 0 00.918-.368 1.25 1.25 0 00.014-1.8l-5.44-5.418A8.75 8.75 0 0019.1 9.925a9.052 9.052 0 00-18.1 0 9.069 9.069 0 0014.3 7.262l5.461 5.433a1.313 1.313 0 00.931.38zM10.052 3.265a6.661 6.661 0 11-6.726 6.66 6.7 6.7 0 016.725-6.66zM8.478 14.133a1.189 1.189 0 00.823-.33 1.112 1.112 0 000-1.6 1.184 1.184 0 00-1.646 0 1.112 1.112 0 000 1.6 1.18 1.18 0 00.823.33zm-1.957-3.244a1.078 1.078 0 00.135-.009 1.018 1.018 0 00.682-.391.971.971 0 00.192-.724c-.206-1.506 1.549-2.282 1.567-2.289a1 1 0 00.533-.563.957.957 0 00-.027-.747 1.027 1.027 0 00-1.337-.5c-.129.056-3.158 1.4-2.754 4.362a1.014 1.014 0 001.01.861z" fill="#a2a2a2"/></svg>