<svg xmlns="http://www.w3.org/2000/svg" width="436.9" height="245.8"><path d="M109.2 128V39.9a33.075 33.075 0 0 1 33.1-33.1h138.6A33.075 33.075 0 0 1 314 39.9v123.6a.265.265 0 0 1-.3.3H109.2" fill="#fff"/><path d="M313.7 170.7H109.2a6.8 6.8 0 1 1 0-13.6h198V39.9a26.332 26.332 0 0 0-26.3-26.3H142.3A26.332 26.332 0 0 0 116 39.9V128a6.8 6.8 0 0 1-13.6 0V39.9A39.946 39.946 0 0 1 142.3 0h138.6a39.946 39.946 0 0 1 39.9 39.9v123.6a7.28 7.28 0 0 1-7.1 7.2z" fill="#602f75"/><path d="M81.9 20.5H27.3a6.8 6.8 0 0 1 0-13.6h54.6a6.8 6.8 0 0 1 0 13.6zm0 34.1H61.4a6.8 6.8 0 0 1 0-13.6h20.5a6.8 6.8 0 1 1 0 13.6zm-40.9 0H6.8a6.8 6.8 0 1 1 0-13.6H41a6.8 6.8 0 1 1 0 13.6zm40.9 34.1H54.6a6.8 6.8 0 0 1 0-13.6h27.3a6.8 6.8 0 0 1 0 13.6z" fill="#ffd4d5"/><path d="M405.7 211.6H109.2v-47.8h320.9v23.4a24.433 24.433 0 0 1-24.4 24.4z" fill="#06b1b5"/><path d="M405.7 218.5H109.2a6.807 6.807 0 0 1-6.8-6.8v-47.8a6.807 6.807 0 0 1 6.8-6.8h320.9a6.807 6.807 0 0 1 6.8 6.8v23.4a31.3 31.3 0 0 1-31.2 31.2zm-289.6-13.7h289.6a17.626 17.626 0 0 0 17.6-17.6v-16.5H116.1z" fill="#602f75"/><path d="M314 54.6h48.5a67.644 67.644 0 0 1 67.6 67.6v41.6H314z" fill="#fb4b63"/><path d="M430.1 170.7H314a6.807 6.807 0 0 1-6.8-6.8V54.6a6.807 6.807 0 0 1 6.8-6.8h48.5a74.516 74.516 0 0 1 74.4 74.4v41.6a6.829 6.829 0 0 1-6.8 6.9zM320.9 157h102.4v-34.8a60.9 60.9 0 0 0-60.8-60.8h-41.6z" fill="#602f75"/><path d="M409.6 122.9h-75.1v-41h34.1a40.992 40.992 0 0 1 41 41z" fill="#fff"/><path d="M409.6 129.7h-75.1a6.807 6.807 0 0 1-6.8-6.8v-41a6.807 6.807 0 0 1 6.8-6.8h34.1a47.863 47.863 0 0 1 47.8 47.8 6.744 6.744 0 0 1-6.8 6.8zm-68.3-13.6h60.8a34.188 34.188 0 0 0-33.4-27.3h-27.3v27.3z" fill="#602f75"/><circle cx="27.3" cy="27.3" r="27.3" transform="translate(136.5 184.3)" fill="#fff"/><path d="M163.8 245.8a34.1 34.1 0 1 1 34.1-34.1 34.142 34.142 0 0 1-34.1 34.1zm0-54.7a20.5 20.5 0 1 0 20.5 20.5 20.528 20.528 0 0 0-20.5-20.5z" fill="#602f75"/><circle cx="27.3" cy="27.3" r="27.3" transform="translate(348.2 184.3)" fill="#fff"/><path d="M375.5 245.8a34.1 34.1 0 1 1 34.1-34.1 34.142 34.142 0 0 1-34.1 34.1zm0-54.7a20.5 20.5 0 1 0 20.5 20.5 20.528 20.528 0 0 0-20.5-20.5z" fill="#602f75"/><path d="M430.1 245.8H13.7a6.8 6.8 0 0 1 0-13.6h416.4a6.8 6.8 0 0 1 0 13.6z" fill="#602f75"/></svg>